<?xml version="1.0" encoding="utf-8"?>
<!-- Generator: Adobe Illustrator 24.2.0, SVG Export Plug-In . SVG Version: 6.00 Build 0)  -->
<svg version="1.1" id="Capa_1" xmlns="http://www.w3.org/2000/svg" xmlns:xlink="http://www.w3.org/1999/xlink" x="0px" y="0px"
	 width="13.9px" height="11.4px" viewBox="0 0 13.9 11.4" style="enable-background:new 0 0 13.9 11.4;" xml:space="preserve">
<path style="fill:#FFFFFF;" d="M11.7,5.7c0,2.7-2.2,4.8-4.8,4.8S2.1,8.4,2.1,5.7s2.2-4.8,4.8-4.8S11.7,3.1,11.7,5.7 M6.9,1.5
	c-2.4,0-4.3,1.9-4.3,4.3S4.5,10,6.9,10s4.3-1.9,4.3-4.3S9.3,1.5,6.9,1.5 M5,5.3H4.6V3.5h1.2c0.4,0,0.7,0.2,0.7,0.6
	c0,0.3-0.1,0.5-0.4,0.6l0.5,0.6H6L5.5,4.7H5V5.3z M5,7.6h1.5V8h-2V6.2h1.9v0.4H5v0.3h1.3v0.4H5V7.6z M5,4.3h0.7C5.9,4.3,6,4.2,6,4.1
	S5.9,3.9,5.7,3.9H5V4.3L5,4.3z M9.4,3.5v0.4H8v0.3h1.3v0.4H8v0.6H7.5V3.5H9.4z M7.5,6.2h1.9v0.4H8V7h1.3v0.4H8V8H7.5V6.2z"/>
</svg>
